<svg width="33" height="37" viewBox="0 0 33 37" fill="none" xmlns="http://www.w3.org/2000/svg">
<path d="M10.2329 0C9.33893 0 8.61554 0.723386 8.61554 1.61732C8.61554 2.51125 9.33893 3.23464 10.2329 3.23464H28.832V25.8771C28.832 26.771 29.5554 27.4944 30.4493 27.4944C31.3433 27.4944 32.0667 26.771 32.0667 25.8771V3.23464C32.0667 1.44831 30.6183 0 28.832 0H10.2329Z" fill="#1976D2"/>
<path fill-rule="evenodd" clip-rule="evenodd" d="M4.16799 7.68213C2.38166 7.68213 0.93335 9.13044 0.93335 10.9168V33.1549C0.93335 34.9412 2.38166 36.3895 4.16799 36.3895H21.1498C22.9362 36.3895 24.3845 34.9412 24.3845 33.1549V10.9168C24.3845 9.13044 22.9362 7.68213 21.1498 7.68213H4.16799ZM4.16799 10.9168H21.1498V33.1549H4.16799V10.9168Z" fill="#1976D2"/>
</svg>
