<svg width="57" height="57" viewBox="0 0 57 57" fill="none" xmlns="http://www.w3.org/2000/svg">
<path d="M36.0227 40.7378H32.7509C35.1093 39.3128 36.6939 36.7321 36.6939 33.781C36.6939 29.2979 33.0459 25.6499 28.5628 25.6499C24.0798 25.6499 20.4318 29.2979 20.4318 33.781C20.4318 36.7321 22.0164 39.3128 24.3748 40.7378H21.103C17.9594 40.7378 15.403 43.2943 15.403 46.4378V52.7249C15.403 55.0819 17.321 56.9999 19.678 56.9999H37.4491C39.8061 56.9999 41.7241 55.0819 41.7241 52.7249V46.4378C41.7241 43.2943 39.1677 40.7378 36.0241 40.7378H36.0227Z" fill="url(#paint0_linear_42_173)"/>
<path d="M51.7389 0H38.0076C35.1234 0 32.775 2.34697 32.775 5.2326V14.897C32.775 17.7313 35.0408 20.0469 37.8566 20.1267V22.6262C37.8566 23.1691 38.1658 23.665 38.6531 23.9044C38.8541 24.0013 39.0678 24.0512 39.2816 24.0512C39.5908 24.0512 39.8986 23.9514 40.1522 23.7548L44.849 20.1296H51.7375C54.6217 20.1296 56.9701 17.7826 56.9701 14.897V5.2326C56.9701 2.3484 54.6245 0 51.7389 0ZM50.1258 11.4285L46.817 14.7374C45.8622 15.6921 44.3147 15.6921 43.3614 14.7374L40.0525 11.4285C38.6489 10.0249 38.4423 7.71637 39.7704 6.24008C41.1868 4.66687 43.6121 4.61985 45.0899 6.09758C46.5676 4.61985 48.993 4.66687 50.4094 6.24008C51.7375 7.71495 51.5294 10.0249 50.1258 11.4285Z" fill="url(#paint1_linear_42_173)"/>
<path d="M18.9639 5.7002H5.2326C2.3484 5.7002 0 8.04717 0 10.9328V20.5971C0 23.4813 2.34697 25.8297 5.2326 25.8297H12.121L16.8179 29.4549C17.0729 29.6516 17.3807 29.7513 17.6885 29.7513C17.9023 29.7513 18.1175 29.7029 18.317 29.6046C18.8043 29.3652 19.1135 28.8678 19.1135 28.3263V25.8269C21.9308 25.7471 24.1951 23.4315 24.1951 20.5971V10.9328C24.1951 8.0486 21.8481 5.7002 18.9625 5.7002H18.9639ZM17.1 19.9502H6.91552C6.1275 19.9502 5.49053 19.3132 5.49053 18.5252C5.49053 17.7372 6.1275 17.1002 6.91552 17.1002H17.1C17.888 17.1002 18.525 17.7372 18.525 18.5252C18.525 19.3132 17.888 19.9502 17.1 19.9502ZM17.1 14.2502H6.91552C6.1275 14.2502 5.49053 13.6132 5.49053 12.8252C5.49053 12.0372 6.1275 11.4002 6.91552 11.4002H17.1C17.888 11.4002 18.525 12.0372 18.525 12.8252C18.525 13.6132 17.888 14.2502 17.1 14.2502Z" fill="url(#paint2_linear_42_173)"/>
<path d="M12.4916 36.3887C10.592 35.8643 10.4481 35.7204 9.9237 33.8209C9.75413 33.2024 9.19125 32.7749 8.55 32.7749C7.90875 32.7749 7.34588 33.2038 7.1763 33.8209C6.6519 35.7204 6.50798 35.8643 4.60845 36.3887C3.99 36.5583 3.5625 37.1212 3.5625 37.7624C3.5625 38.4037 3.99143 38.9665 4.60845 39.1361C6.50798 39.6605 6.6519 39.8044 7.1763 41.704C7.34588 42.3224 7.90875 42.7499 8.55 42.7499C9.19125 42.7499 9.75413 42.321 9.9237 41.704C10.4481 39.8044 10.592 39.6605 12.4916 39.1361C13.11 38.9665 13.5375 38.4037 13.5375 37.7624C13.5375 37.1212 13.1086 36.5583 12.4916 36.3887Z" fill="url(#paint3_linear_42_173)"/>
<path d="M50.2555 32.8263C47.8772 32.1694 47.6307 31.9228 46.9737 29.5445C46.8027 28.9261 46.2398 28.5 45.6 28.5C44.9602 28.5 44.3973 28.9275 44.2263 29.5445C43.5694 31.9228 43.3229 32.1694 40.9446 32.8263C40.3261 32.9973 39.9 33.5602 39.9 34.2C39.9 34.8398 40.3275 35.4027 40.9446 35.5737C43.3229 36.2306 43.5694 36.4771 44.2263 38.8555C44.3973 39.4739 44.9602 39.9 45.6 39.9C46.2398 39.9 46.8027 39.4725 46.9737 38.8555C47.6307 36.4771 47.8772 36.2306 50.2555 35.5737C50.8739 35.4027 51.3 34.8398 51.3 34.2C51.3 33.5602 50.8725 32.9973 50.2555 32.8263Z" fill="url(#paint4_linear_42_173)"/>
<defs>
<linearGradient id="paint0_linear_42_173" x1="28.5635" y1="25.6499" x2="28.5635" y2="56.9999" gradientUnits="userSpaceOnUse">
<stop stop-color="#2D75C7"/>
<stop offset="1" stop-color="#86B8F2"/>
</linearGradient>
<linearGradient id="paint1_linear_42_173" x1="44.8726" y1="0" x2="44.8726" y2="24.0512" gradientUnits="userSpaceOnUse">
<stop stop-color="#2D75C7"/>
<stop offset="1" stop-color="#86B8F2"/>
</linearGradient>
<linearGradient id="paint2_linear_42_173" x1="12.0975" y1="5.7002" x2="12.0975" y2="29.7513" gradientUnits="userSpaceOnUse">
<stop stop-color="#2D75C7"/>
<stop offset="1" stop-color="#86B8F2"/>
</linearGradient>
<linearGradient id="paint3_linear_42_173" x1="8.55" y1="32.7749" x2="8.55" y2="42.7499" gradientUnits="userSpaceOnUse">
<stop stop-color="#2D75C7"/>
<stop offset="1" stop-color="#86B8F2"/>
</linearGradient>
<linearGradient id="paint4_linear_42_173" x1="45.6" y1="28.5" x2="45.6" y2="39.9" gradientUnits="userSpaceOnUse">
<stop stop-color="#2D75C7"/>
<stop offset="1" stop-color="#86B8F2"/>
</linearGradient>
</defs>
</svg>
