<svg width="75" height="71" viewBox="0 0 75 71" fill="none" xmlns="http://www.w3.org/2000/svg">
<path fill-rule="evenodd" clip-rule="evenodd" d="M66.256 35.8565C66.0421 35.4349 65.611 35.1675 65.136 35.1675C64.6641 35.1675 64.2299 35.4349 64.016 35.8565L62.4429 38.9335L59.0324 39.4746C58.5636 39.5501 58.1798 39.8805 58.0319 40.3304C57.8872 40.7803 58.0036 41.2743 58.3402 41.6077L60.7816 44.0523L60.2405 47.4691C60.1681 47.9348 60.3632 48.4036 60.747 48.6835C61.1277 48.9604 61.6343 49.0013 62.0558 48.7842L65.1359 47.2206L68.216 48.7842C68.6376 49.0013 69.1441 48.9604 69.528 48.6835C69.9087 48.4035 70.1038 47.9347 70.0314 47.4691L69.4903 44.0523L71.9349 41.6077C72.2684 41.2742 72.3848 40.7803 72.2401 40.3304C72.0953 39.8805 71.7084 39.5501 71.2396 39.4746L67.8291 38.9335L66.256 35.8565Z" fill="url(#paint0_linear_42_160)"/>
<path fill-rule="evenodd" clip-rule="evenodd" d="M14.3849 2.08235C14.1709 1.66076 13.7367 1.39648 13.2648 1.39648C12.7898 1.39648 12.3587 1.66076 12.1448 2.08235L10.5717 5.15932L7.16124 5.70361C6.69246 5.77598 6.30547 6.10633 6.16074 6.55624C6.01601 7.00614 6.13242 7.50012 6.46592 7.83671L8.91055 10.2813L8.3694 13.695C8.29704 14.1606 8.4921 14.6294 8.87594 14.9094C9.25664 15.1863 9.7632 15.2272 10.1848 15.0132L13.2649 13.4464L16.345 15.0132C16.7666 15.2272 17.2731 15.1863 17.6538 14.9094C18.0376 14.6294 18.2327 14.1606 18.1603 13.695L17.6192 10.2813L20.0638 7.83671C20.3973 7.50006 20.5137 7.00615 20.369 6.55624C20.2211 6.10634 19.8373 5.77598 19.3685 5.70361L15.958 5.15932L14.3849 2.08235Z" fill="url(#paint1_linear_42_160)"/>
<path fill-rule="evenodd" clip-rule="evenodd" d="M53.6527 16.8823C57.3274 19.6069 59.6336 23.2501 59.6336 27.29C59.6336 31.1504 57.5257 34.6521 54.1247 37.3328C53.5804 37.7607 53.486 38.5535 53.917 39.101C54.348 39.6453 55.1377 39.7397 55.6852 39.3086C59.7343 36.1153 62.1506 31.8899 62.1506 27.2901C62.1506 22.489 59.5204 18.0969 55.1503 14.8591C54.5903 14.447 53.8005 14.5634 53.3884 15.1234C52.9763 15.6803 53.0927 16.4701 53.6527 16.8823Z" fill="url(#paint2_linear_42_160)"/>
<path fill-rule="evenodd" clip-rule="evenodd" d="M20.4475 37.581C16.8577 34.8689 14.6175 31.2697 14.6175 27.2901C14.6175 24.2068 15.9641 21.35 18.2357 18.9619C21.8129 15.1991 27.6398 12.6004 34.3571 12.034C35.0493 11.9742 35.5621 11.367 35.5023 10.6748C35.4457 9.97952 34.8353 9.46669 34.1432 9.52331C26.7433 10.1494 20.3535 13.0817 16.4109 17.2252C13.6737 20.104 12.1006 23.5711 12.1006 27.2898C12.1006 32.0248 14.6616 36.3637 18.9279 39.5887C19.4847 40.0071 20.2745 39.897 20.6929 39.3433C21.1113 38.7895 21.0012 37.9963 20.4475 37.581Z" fill="url(#paint3_linear_42_160)"/>
<path fill-rule="evenodd" clip-rule="evenodd" d="M56.408 46.1353C54.4228 47.0571 52.2928 47.8406 50.0496 48.4697C49.3763 48.6554 48.9862 49.3507 49.1718 50.0177C49.3606 50.6878 50.0559 51.0811 50.7229 50.8923C53.1045 50.2285 55.3604 49.3947 57.4715 48.4163C58.1007 48.1237 58.3745 47.3749 58.0818 46.7457C57.7893 46.1133 57.0372 45.8396 56.408 46.1353Z" fill="url(#paint4_linear_42_160)"/>
<path fill-rule="evenodd" clip-rule="evenodd" d="M22.9828 48.1079C11.0053 44.3891 2.51695 36.1087 2.51695 26.355C2.51695 23.4007 3.30665 20.5723 4.73815 17.9673C5.07165 17.3569 4.85142 16.5924 4.24105 16.2589C3.63383 15.9222 2.86619 16.1456 2.53266 16.756C0.893459 19.7354 0 22.9729 0 26.3551C0 37.0769 9.06749 46.4247 22.237 50.5146C22.8977 50.7191 23.6025 50.3479 23.8101 49.6841C24.0177 49.0203 23.6467 48.3124 22.9828 48.1079Z" fill="url(#paint5_linear_42_160)"/>
<path fill-rule="evenodd" clip-rule="evenodd" d="M49.5844 9.6396C49.5844 15.4286 40.9011 15.4286 40.9011 9.6396C40.9011 3.8506 49.5844 3.8506 49.5844 9.6396Z" fill="url(#paint6_linear_42_160)"/>
<path fill-rule="evenodd" clip-rule="evenodd" d="M23.6344 4.4104C27.7842 3.1897 32.3426 2.51636 37.1253 2.51636C48.6404 2.51636 58.8685 6.40818 65.1984 12.4489C69.2884 16.3533 71.7331 21.1515 71.7331 26.3554C71.7331 29.1681 71.0189 31.8643 69.7195 34.3624C69.3954 34.9791 69.6345 35.7404 70.2543 36.0583C70.8678 36.3823 71.6292 36.1401 71.9502 35.5266C73.4415 32.6666 74.2501 29.5771 74.2501 26.3552C74.2501 20.4812 71.5506 15.0349 66.9352 10.6276C60.2086 4.20932 49.364 0 37.1247 0C32.094 0 27.2929 0.711038 22.9227 1.99472C22.2557 2.18978 21.8718 2.88826 22.07 3.55837C22.2651 4.22222 22.9636 4.60607 23.6337 4.411L23.6344 4.4104Z" fill="url(#paint7_linear_42_160)"/>
<path fill-rule="evenodd" clip-rule="evenodd" d="M35.8674 40.5351V49.1339C35.8674 51.0939 36.6476 52.9753 38.0319 54.3597C39.4163 55.7441 41.2977 56.5243 43.2546 56.5243H64.8755C65.8288 56.5243 66.7412 56.9018 67.4145 57.5751C68.0877 58.2484 68.4653 59.1608 68.4653 60.1109V60.1172C68.4653 61.0674 68.0877 61.9798 67.4145 62.653C66.7412 63.3263 65.8287 63.707 64.8755 63.707H58.171L51.3217 59.1387C51.1141 59.0003 50.8718 58.9279 50.6233 58.9279H17.9157C15.4931 58.9279 13.5299 60.8911 13.5299 63.3137V66.6141C13.5299 69.0367 15.4931 70.9999 17.9157 70.9999H50.6233C50.8718 70.9999 51.1141 70.9275 51.3217 70.7891L58.171 66.2239H64.8755C66.4958 66.2239 68.05 65.579 69.1952 64.4337C70.3405 63.2885 70.9823 61.7342 70.9823 60.1171V60.1108C70.9823 58.4937 70.3405 56.9394 69.1952 55.7942C68.05 54.649 66.4958 54.0071 64.8755 54.0071H43.2546C41.9647 54.0071 40.7251 53.4912 39.8127 52.5788C38.8972 51.6664 38.3844 50.4268 38.3844 49.1337V40.535H50.0663C50.7616 40.535 51.3248 39.9718 51.3248 39.2765V18.5714C51.3248 18.0618 51.0196 17.6024 50.5477 17.4105C50.0789 17.2154 49.5377 17.3224 49.1759 17.6811L42.4997 24.3605L38.1737 17.873C37.9408 17.5238 37.5476 17.313 37.126 17.313C36.7043 17.313 36.3111 17.5238 36.0783 17.873L31.7522 24.3605L25.076 17.6811C24.7142 17.3224 24.173 17.2154 23.7043 17.4105C23.2323 17.6024 22.9271 18.0618 22.9271 18.5714V39.2765C22.9271 39.9718 23.4903 40.535 24.1856 40.535L35.8674 40.5351ZM20.6963 61.4448V68.4829H17.9151C16.8832 68.4829 16.0463 67.6459 16.0463 66.614V63.3136C16.0463 62.2817 16.8832 61.4448 17.9151 61.4448H20.6963ZM49.4903 61.4448H50.2391L55.5185 64.9654L50.2391 68.4829H49.4903V61.4448ZM48.8076 35.3595H25.4438V38.018H48.8076V35.3595Z" fill="url(#paint8_linear_42_160)"/>
<defs>
<linearGradient id="paint0_linear_42_160" x1="65.136" y1="35.1675" x2="65.136" y2="48.9229" gradientUnits="userSpaceOnUse">
<stop stop-color="#A233C4"/>
<stop offset="1" stop-color="#F2613F"/>
</linearGradient>
<linearGradient id="paint1_linear_42_160" x1="13.2649" y1="1.39648" x2="13.2649" y2="15.1494" gradientUnits="userSpaceOnUse">
<stop stop-color="#A233C4"/>
<stop offset="1" stop-color="#F2613F"/>
</linearGradient>
<linearGradient id="paint2_linear_42_160" x1="57.6463" y1="14.6128" x2="57.6463" y2="39.5793" gradientUnits="userSpaceOnUse">
<stop stop-color="#A233C4"/>
<stop offset="1" stop-color="#F2613F"/>
</linearGradient>
<linearGradient id="paint3_linear_42_160" x1="23.8038" y1="9.51904" x2="23.8038" y2="39.8427" gradientUnits="userSpaceOnUse">
<stop stop-color="#A233C4"/>
<stop offset="1" stop-color="#F2613F"/>
</linearGradient>
<linearGradient id="paint4_linear_42_160" x1="53.6624" y1="46.0161" x2="53.6624" y2="50.9396" gradientUnits="userSpaceOnUse">
<stop stop-color="#A233C4"/>
<stop offset="1" stop-color="#F2613F"/>
</linearGradient>
<linearGradient id="paint5_linear_42_160" x1="11.9339" y1="16.1021" x2="11.9339" y2="50.5708" gradientUnits="userSpaceOnUse">
<stop stop-color="#A233C4"/>
<stop offset="1" stop-color="#F2613F"/>
</linearGradient>
<linearGradient id="paint6_linear_42_160" x1="45.2428" y1="5.29785" x2="45.2428" y2="13.9814" gradientUnits="userSpaceOnUse">
<stop stop-color="#A233C4"/>
<stop offset="1" stop-color="#F2613F"/>
</linearGradient>
<linearGradient id="paint7_linear_42_160" x1="48.1339" y1="0" x2="48.1339" y2="36.2023" gradientUnits="userSpaceOnUse">
<stop stop-color="#A233C4"/>
<stop offset="1" stop-color="#F2613F"/>
</linearGradient>
<linearGradient id="paint8_linear_42_160" x1="42.2561" y1="17.313" x2="42.2561" y2="70.9999" gradientUnits="userSpaceOnUse">
<stop stop-color="#A233C4"/>
<stop offset="1" stop-color="#F2613F"/>
</linearGradient>
</defs>
</svg>
