<svg width="37" height="29" viewBox="0 0 37 29" fill="none" xmlns="http://www.w3.org/2000/svg">
<path d="M31.4215 28.5392H6.07771C2.99281 28.5253 0.499146 26.0195 0.499146 22.9347V6.06548C0.499146 2.96867 3.00886 0.460938 6.10369 0.460938H31.4215C34.5064 0.474869 37 2.9786 37 6.06548V22.9586C36.9861 26.0355 34.4963 28.5254 31.4215 28.5392ZM6.07771 3.0324C4.39991 3.04634 3.04656 4.41163 3.04656 6.08943V22.9586C3.04656 24.6384 4.39991 26.0017 6.07771 26.0156H31.4215C33.0993 26.0017 34.4526 24.6384 34.4526 22.9586V6.06548C34.4526 4.3857 33.0993 3.02237 31.4215 3.00846L6.07771 3.0324Z" fill="black"/>
<path d="M18.7497 17.7121C17.267 17.7161 15.8459 17.127 14.8011 16.0762L2.40584 3.66874C1.95405 3.1652 1.97594 2.39696 2.4536 1.9193C2.93126 1.44164 3.69949 1.41975 4.20304 1.87154L16.6105 14.2729C17.1777 14.8421 17.9499 15.1645 18.756 15.1645C19.56 15.1645 20.3323 14.8421 20.8994 14.2729L33.2967 1.87561C33.7943 1.37805 34.6023 1.37805 35.0999 1.87561C35.5974 2.37317 35.5974 3.18122 35.0999 3.6788L22.7047 16.0761C21.6578 17.1289 20.2324 17.7182 18.7497 17.7121Z" fill="black"/>
<path d="M34.2079 27.5235C33.8695 27.5235 33.5451 27.3882 33.3063 27.1474L21.5877 15.4288C21.1379 14.9252 21.1578 14.157 21.6375 13.6793C22.1151 13.2017 22.8814 13.1798 23.3869 13.6296L35.1055 25.3482C35.3443 25.587 35.4777 25.9095 35.4777 26.2478C35.4777 26.5861 35.3443 26.9085 35.1055 27.1473C34.8686 27.3882 34.5462 27.5235 34.2079 27.5235Z" fill="black"/>
<path d="M3.29746 27.5238C2.78398 27.5198 2.32221 27.2093 2.12519 26.7356C1.92815 26.2599 2.03364 25.7146 2.39387 25.3484L14.1125 13.5997C14.612 13.1022 15.4181 13.1022 15.9176 13.5997C16.4152 14.0973 16.4152 14.9053 15.9176 15.4029L4.19904 27.1215C3.96419 27.3723 3.63974 27.5178 3.29746 27.5238Z" fill="black"/>
</svg>
